<svg width="24" height="24" viewBox="0 0 24 24" fill="none" xmlns="http://www.w3.org/2000/svg">
<path d="M10.5575 16.5533L17.8195 9.27728L16.038 7.49578L10.5575 12.962L7.87725 10.2958L6.09575 12.0773L10.5575 16.5533ZM5.1695 21.4805C4.43117 21.4805 3.80492 21.2234 3.29075 20.7093C2.77658 20.1951 2.5195 19.5689 2.5195 18.8305V5.16953C2.5195 4.4312 2.77658 3.80495 3.29075 3.29078C3.80492 2.77661 4.43117 2.51953 5.1695 2.51953H18.8305C19.5688 2.51953 20.1951 2.77661 20.7092 3.29078C21.2234 3.80495 21.4805 4.4312 21.4805 5.16953V18.8305C21.4805 19.5689 21.2234 20.1951 20.7092 20.7093C20.1951 21.2234 19.5688 21.4805 18.8305 21.4805H5.1695Z" fill="currentColor"/>
</svg>
