<svg width="24" height="24" viewBox="0 0 24 24" fill="none" xmlns="http://www.w3.org/2000/svg">
<path d="M15.3785 3C15.144 3.41199 14.9334 3.8382 14.742 4.27387C12.9232 4.00395 11.0709 4.00395 9.24729 4.27387C9.06063 3.8382 8.84523 3.41199 8.61072 3C6.902 3.28888 5.23636 3.79558 3.65689 4.51065C0.526643 9.09945 -0.320532 13.5698 0.100668 17.9787C1.93381 19.3189 3.98715 20.3417 6.17448 20.9953C6.66747 20.3417 7.10303 19.6456 7.47636 18.9211C6.76798 18.6606 6.08354 18.3339 5.42782 17.955C5.60012 17.8319 5.76765 17.704 5.93038 17.5809C9.77378 19.371 14.225 19.371 18.0732 17.5809C18.236 17.7135 18.4035 17.8414 18.5758 17.955C17.9201 18.3386 17.2356 18.6606 16.5225 18.9258C16.8958 19.6504 17.3313 20.3465 17.8243 21C20.0116 20.3465 22.0649 19.3283 23.8982 17.9882C24.3959 12.8737 23.0462 8.44119 20.3323 4.51539C18.7577 3.80032 17.092 3.29361 15.3833 3.00947L15.3785 3ZM8.01242 15.2652C6.83022 15.2652 5.84902 14.2044 5.84902 12.8927C5.84902 11.5809 6.79192 10.5154 8.00765 10.5154C9.22337 10.5154 10.1902 11.5856 10.171 12.8927C10.1519 14.1997 9.21858 15.2652 8.01242 15.2652ZM15.9864 15.2652C14.7994 15.2652 13.8278 14.2044 13.8278 12.8927C13.8278 11.5809 14.7707 10.5154 15.9864 10.5154C17.2021 10.5154 18.1642 11.5856 18.145 12.8927C18.1259 14.1997 17.1925 15.2652 15.9864 15.2652Z" fill="currentColor"/>
</svg>
