<svg width="24" height="24" viewBox="0 0 24 24" fill="none" xmlns="http://www.w3.org/2000/svg">
<path d="M9.60697 15.8571V8.14289L15.8306 11.9906L9.60697 15.8571ZM23.4917 5.81545C23.2111 4.70807 22.4222 3.84461 21.3704 3.54432C19.512 3 11.9912 3 11.9912 3C11.9912 3 4.48797 3 2.62968 3.54432C1.59531 3.84461 0.78888 4.70807 0.490856 5.81545C5.96046e-08 7.80502 0 11.9906 0 11.9906C0 11.9906 5.96046e-08 16.1762 0.490856 18.1846C0.78888 19.2732 1.59531 20.1554 2.62968 20.4557C4.48797 21 11.9912 21 11.9912 21C11.9912 21 19.512 21 21.3704 20.4557C22.4222 20.1554 23.2111 19.2732 23.4917 18.1846C24 16.1762 24 11.9906 24 11.9906C24 11.9906 24 7.80502 23.4917 5.81545Z" fill="currentColor"/>
</svg>
