<svg width="24" height="24" viewBox="0 0 24 24" fill="none" xmlns="http://www.w3.org/2000/svg">
<path d="M2.71751 6.56194V2.22269L7.07076 4.39219L2.71751 6.56194ZM18.1555 6.56194V2.22269L22.4945 4.39219L18.1555 6.56194ZM10.7598 5.47719V1.13794L15.113 3.30744L10.7598 5.47719ZM8.88701 22.4259C7.75651 22.3804 6.7346 22.2744 5.82126 22.1077C4.90776 21.941 4.12893 21.7227 3.48476 21.4527C2.8406 21.1827 2.3426 20.8682 1.99076 20.5092C1.63893 20.1502 1.46301 19.7554 1.46301 19.3249V9.99994C1.46301 9.49844 1.74435 9.03319 2.30701 8.60419C2.86968 8.17519 3.62926 7.80202 4.58576 7.48469C5.54243 7.16736 6.65968 6.91769 7.93751 6.73569C9.21535 6.55386 10.5695 6.46294 12 6.46294C13.4305 6.46294 14.7847 6.55386 16.0625 6.73569C17.3403 6.91769 18.4576 7.16736 19.4143 7.48469C20.3708 7.80202 21.1303 8.17519 21.693 8.60419C22.2557 9.03319 22.537 9.49844 22.537 9.99994V19.3249C22.537 19.7554 22.3611 20.1479 22.0093 20.5022C21.6574 20.8565 21.1594 21.1663 20.5153 21.4314C19.8711 21.6968 19.0923 21.9128 18.1788 22.0794C17.2654 22.2461 16.2435 22.3616 15.113 22.4259V17.1129H8.88701V22.4259ZM12 10.7879C13.4753 10.7879 14.7417 10.7063 15.799 10.5429C16.8562 10.3794 17.7159 10.1915 18.3783 9.97919C18.0579 9.83936 17.3303 9.66002 16.1955 9.44119C15.0608 9.22236 13.6623 9.11294 12 9.11294C10.3377 9.11294 8.93676 9.22236 7.79726 9.44119C6.65776 9.66002 5.9326 9.83936 5.62176 9.97919C6.2841 10.1915 7.14385 10.3794 8.20101 10.5429C9.25835 10.7063 10.5247 10.7879 12 10.7879Z" fill="currentColor"/>
</svg>
