<svg width="24" height="24" viewBox="0 0 24 24" fill="none" xmlns="http://www.w3.org/2000/svg">
<path d="M5.56194 16.4523C4.91761 16.4523 4.36903 16.2258 3.91619 15.7728C3.46336 15.3199 3.23694 14.7714 3.23694 14.1273C3.23694 13.4829 3.46336 12.9343 3.91619 12.4815C4.36903 12.0287 4.91761 11.8023 5.56194 11.8023C6.20611 11.8023 6.75461 12.0287 7.20744 12.4815C7.66044 12.9343 7.88694 13.4829 7.88694 14.1273C7.88694 14.7714 7.66044 15.3199 7.20744 15.7728C6.75461 16.2258 6.20611 16.4523 5.56194 16.4523ZM18.4379 16.4523C17.7938 16.4523 17.2453 16.2258 16.7924 15.7728C16.3394 15.3199 16.1129 14.7714 16.1129 14.1273C16.1129 13.4829 16.3394 12.9343 16.7924 12.4815C17.2453 12.0287 17.7938 11.8023 18.4379 11.8023C19.0823 11.8023 19.6309 12.0287 20.0837 12.4815C20.5365 12.9343 20.7629 13.4829 20.7629 14.1273C20.7629 14.7714 20.5365 15.3199 20.0837 15.7728C19.6309 16.2258 19.0823 16.4523 18.4379 16.4523ZM11.9999 15.424C11.2151 15.424 10.5481 15.1517 9.99894 14.607C9.44961 14.0625 9.17494 13.3978 9.17494 12.613C9.17494 11.8188 9.44961 11.1471 9.99894 10.5978C10.5481 10.0486 11.2151 9.77401 11.9999 9.77401C12.7848 9.77401 13.4518 10.0486 14.0009 10.5978C14.5503 11.1471 14.8249 11.8188 14.8249 12.613C14.8249 13.3978 14.5503 14.0625 14.0009 14.607C13.4518 15.1517 12.7848 15.424 11.9999 15.424ZM6.76069 22.0458C6.99403 20.8109 7.60019 19.7813 8.57919 18.957C9.55819 18.1328 10.6984 17.7208 11.9999 17.7208C13.3108 17.7208 14.4557 18.1328 15.4347 18.957C16.4137 19.7813 17.0199 20.8109 17.2532 22.0458H6.76069ZM1.23694 22.0458C1.23694 20.8516 1.65919 19.8322 2.50369 18.9875C3.34819 18.143 4.36761 17.7208 5.56194 17.7208C5.88294 17.7208 6.18961 17.7528 6.48194 17.817C6.77444 17.881 7.05144 17.9724 7.31294 18.0913C6.76594 18.6029 6.31394 19.1948 5.95694 19.867C5.60011 20.539 5.36336 21.2653 5.24669 22.0458H1.23694ZM18.7674 22.0458C18.6413 21.2653 18.4021 20.539 18.0499 19.867C17.6978 19.1948 17.2481 18.6029 16.7009 18.0913C16.9626 17.9724 17.2396 17.881 17.5319 17.817C17.8244 17.7528 18.1264 17.7208 18.4379 17.7208C19.6323 17.7208 20.6517 18.143 21.4962 18.9875C22.3407 19.8322 22.7629 20.8516 22.7629 22.0458H18.7674ZM2.01619 11.887L0.434692 9.77826L11.9999 0.869507L15.8444 3.82051V1.96851H19.4804V6.61526L23.5652 9.77826L21.9837 11.887L11.9999 4.20001L2.01619 11.887Z" fill="currentColor"/>
</svg>
